<svg xmlns="http://www.w3.org/2000/svg" viewBox="0 0 120 120" role="img" aria-label="Cavadduzzu">
  <!-- gomma: anello scuro con tasselli del battistrada -->
  <circle cx="60" cy="60" r="54" fill="#16181b"/>
  <g fill="#2b3036">
    <rect x="57" y="4" width="6" height="10" rx="1.5"/>
    <rect x="57" y="4" width="6" height="10" rx="1.5" transform="rotate(30 60 60)"/>
    <rect x="57" y="4" width="6" height="10" rx="1.5" transform="rotate(60 60 60)"/>
    <rect x="57" y="4" width="6" height="10" rx="1.5" transform="rotate(90 60 60)"/>
    <rect x="57" y="4" width="6" height="10" rx="1.5" transform="rotate(120 60 60)"/>
    <rect x="57" y="4" width="6" height="10" rx="1.5" transform="rotate(150 60 60)"/>
    <rect x="57" y="4" width="6" height="10" rx="1.5" transform="rotate(180 60 60)"/>
    <rect x="57" y="4" width="6" height="10" rx="1.5" transform="rotate(210 60 60)"/>
    <rect x="57" y="4" width="6" height="10" rx="1.5" transform="rotate(240 60 60)"/>
    <rect x="57" y="4" width="6" height="10" rx="1.5" transform="rotate(270 60 60)"/>
    <rect x="57" y="4" width="6" height="10" rx="1.5" transform="rotate(300 60 60)"/>
    <rect x="57" y="4" width="6" height="10" rx="1.5" transform="rotate(330 60 60)"/>
  </g>
  <!-- cerchio interno giallo -->
  <circle cx="60" cy="60" r="38" fill="#ffc400"/>
  <clipPath id="inner"><circle cx="60" cy="60" r="38"/></clipPath>
  <g clip-path="url(#inner)">
    <!-- criniera -->
    <path fill="#16181b" d="M73 29 C82 33 90 45 92 60 C93 72 92 84 90 100 L83 100 C86 84 86 68 83 55 C80 45 77 39 72 35 Z"/>
    <!-- testa e collo di cavallo, rivolti a sinistra -->
    <path fill="#16181b" stroke="#ffc400" stroke-width="2" stroke-linejoin="round" d="M70 32 L68 21 L62 33
      C56 38 50 45 45 52 C41 57 37 61 35 65 C33 69 35 73 39 74
      C43 75 47 73 50 70 C53 67 56 65 59 66
      C61 74 60 86 56 100 L86 100 C88 80 85 58 77 43 C75 38 73 35 70 32 Z"/>
  </g>
  <circle cx="56" cy="45" r="2.6" fill="#ffc400"/>
  <circle cx="39" cy="67" r="1.6" fill="#ffc400"/>
</svg>
